HIERARCHY
ROOT Hips
{
	OFFSET 0.00 0.00 0.00
	CHANNELS 6 Xposition Yposition Zposition Xrotation Yrotation Zrotation
	JOINT LeftUpLeg
	{
		OFFSET 3.77282 0.00000 0.00000
		CHANNELS 3 Xrotation Yrotation Zrotation
		JOINT LeftLeg
		{
			OFFSET 0.00000 -17.00973 0.00000
			CHANNELS 3 Xrotation Yrotation Zrotation
			JOINT LeftFoot
			{
				OFFSET 0.00000 -15.74253 0.00000
				CHANNELS 3 Xrotation Yrotation Zrotation
				JOINT LeftToeBase
				{
					OFFSET 0.00000 -1.60748 5.99922
					CHANNELS 3 Xrotation Yrotation Zrotation
					End Site
					{
						OFFSET 0.00000 0.00000 2.95275
					}
				}
			}
		}
	}
	JOINT RightUpLeg
	{
		OFFSET -3.77282 0.00000 0.00000
		CHANNELS 3 Xrotation Yrotation Zrotation
		JOINT RightLeg
		{
			OFFSET 0.00000 -17.00973 0.00000
			CHANNELS 3 Xrotation Yrotation Zrotation
			JOINT RightFoot
			{
				OFFSET 0.00000 -15.74253 0.00000
				CHANNELS 3 Xrotation Yrotation Zrotation
				JOINT RightToeBase
				{
					OFFSET 0.00000 -1.60748 5.99922
					CHANNELS 3 Xrotation Yrotation Zrotation
					End Site
					{
						OFFSET 0.00000 0.00000 2.95275
					}
				}
			}
		}
	}
	JOINT Spine
	{
		OFFSET 0.00000 0.03937 0.00000
		CHANNELS 3 Xrotation Yrotation Zrotation
		JOINT Spine1
		{
			OFFSET 0.00000 6.63707 0.00000
			CHANNELS 3 Xrotation Yrotation Zrotation
			JOINT Neck
			{
				OFFSET 0.00000 11.04423 0.00000
				CHANNELS 3 Xrotation Yrotation Zrotation
				JOINT Head
				{
					OFFSET 0.00000 5.48188 0.00000
					CHANNELS 3 Xrotation Yrotation Zrotation
					End Site
					{
						OFFSET 0.00000 4.52755 0.00000
					}
				}
			}
			JOINT LeftShoulder
			{
				OFFSET 0.00000 11.04423 0.00000
				CHANNELS 3 Xrotation Yrotation Zrotation
				JOINT LeftArm
				{
					OFFSET 6.93940 -0.00003 0.00000
					CHANNELS 3 Xrotation Yrotation Zrotation
					JOINT LeftForeArm
					{
						OFFSET 9.84774 -0.00004 0.00000
						CHANNELS 3 Xrotation Yrotation Zrotation
						JOINT LeftHand
						{
							OFFSET 9.01486 -0.00003 0.00000
							CHANNELS 3 Xrotation Yrotation Zrotation
							JOINT LeftHandThumb
							{
								OFFSET 0.00000 0.00000 0.00000
								CHANNELS 3 Xrotation Yrotation Zrotation
								End Site
								{
									OFFSET 0.00000 0.00000 3.93700
								}
							}
							JOINT L_Wrist_End
							{
								OFFSET 3.93700 -0.00001 0.00000
								CHANNELS 3 Xrotation Yrotation Zrotation
							}
						}
					}
				}
			}
			JOINT RightShoulder
			{
				OFFSET 0.00000 11.04423 0.00000
				CHANNELS 3 Xrotation Yrotation Zrotation
				JOINT RightArm
				{
					OFFSET -6.93940 -0.00003 0.00000
					CHANNELS 3 Xrotation Yrotation Zrotation
					JOINT RightForeArm
					{
						OFFSET -9.84774 -0.00004 0.00000
						CHANNELS 3 Xrotation Yrotation Zrotation
						JOINT RightHand
						{
							OFFSET -9.01486 -0.00003 0.00000
							CHANNELS 3 Xrotation Yrotation Zrotation
							JOINT RightHandThumb
							{
								OFFSET 0.00000 0.00000 0.00000
								CHANNELS 3 Xrotation Yrotation Zrotation
								End Site
								{
									OFFSET 0.00000 0.00000 3.93700
								}
							}
							JOINT R_Wrist_End
							{
								OFFSET -5.39369 -0.00002 0.00000
								CHANNELS 3 Xrotation Yrotation Zrotation
							}
						}
					}
				}
			}
		}
	}
}
MOTION
Frames: 14
Frame Time: 0.033332
 -0.6260 32.5661 -1.5803 3.0962 -4.8889 0.6604 -17.8649 2.3451 0.2229 49.6699 -0.0000 0.0000 -27.2022 6.5219 -0.2128 -12.0907 0.0000 -0.0000 -18.5171 -6.6033 2.1493 49.9965 -0.0000 0.0000 -22.6483 -2.0698 -22.5545 -14.0283 0.0000 0.0000 -14.3455 0.5536 1.6114 23.6274 0.9251 -3.1429 10.8002 6.4971 4.4833 -28.6591 7.3072 -11.9502 5.9835 2.8981 7.6139 -0.0901 7.5290 -53.3820 -0.0001 -17.1069 -0.0000 15.2088 6.8343 -3.4201 -0.0000 -0.0000 0.0000 -0.0000 -0.0000 0.0000 7.5841 0.0366 -3.7077 9.3655 -5.7674 62.4571 -0.0001 20.5496 0.0000 4.5263 29.6093 -15.0174 -0.0000 -0.0000 0.0000 -0.0000 -0.0000 0.0000
 -0.7235 33.3789 -1.3407 2.0083 -4.0770 1.1672 -14.8259 4.0707 0.6834 45.3111 -0.0000 0.0000 -20.9741 3.3717 -2.0800 -15.8099 0.0000 -0.0000 -14.7937 -8.7608 0.8334 44.8607 -0.0000 0.0000 -18.5969 0.3787 -20.0891 -14.1941 0.0000 -0.0000 -15.4528 0.5161 1.5228 26.4968 0.6442 -3.6328 10.8900 6.4899 4.8420 -30.8452 7.0779 -12.3395 6.7202 1.5502 8.5152 -0.1692 7.1781 -54.5948 -0.0001 -16.9955 -0.0000 12.1203 7.8789 0.4379 -0.0000 -0.0000 0.0000 -0.0000 -0.0000 0.0000 9.1355 0.2632 -3.9723 9.6572 -3.6165 62.8355 -0.0001 20.2529 0.0000 6.0000 29.2295 -17.8607 -0.0000 -0.0000 0.0000 -0.0000 -0.0000 0.0000
 -0.9171 35.0271 -1.0031 1.7636 -3.5773 1.5958 -11.1130 7.1961 1.7411 36.8793 -0.0000 0.0000 -7.7145 -1.8127 -5.1363 -22.9892 0.0000 -0.0000 -9.7974 -9.5805 0.4455 34.7924 -0.0000 0.0000 -8.5532 2.5413 -13.9488 -15.5865 0.0000 0.0000 -13.8482 0.5783 0.8680 22.0283 0.7909 -3.6999 15.2562 7.0728 5.2005 -30.9038 5.9743 -12.2791 7.0371 0.2087 9.0828 2.8487 4.1051 -56.4308 -0.0001 -15.4373 -0.0000 11.5296 7.9647 1.5514 -0.0000 -0.0000 0.0000 -0.0000 -0.0000 0.0000 9.3321 0.7471 -4.7504 13.0317 -0.5535 64.5782 -0.0001 18.6656 0.0000 4.4319 29.5085 -17.0772 -0.0000 -0.0000 0.0000 -0.0000 -0.0000 0.0000
 -1.1275 36.9835 -0.5250 1.2082 -3.5297 1.9111 -6.6325 8.8355 2.1660 26.3969 -0.0000 0.0000 11.2319 -6.2208 -8.6047 -31.5254 0.0000 -0.0000 -4.3568 -8.5501 0.0782 23.4254 -0.0000 0.0000 6.8284 5.7208 -2.0982 -18.2813 0.0000 -0.0000 -11.6059 0.8857 0.4815 16.0696 1.0298 -4.0599 19.7060 7.0098 6.0023 -27.7936 5.1431 -12.5151 7.6310 -0.4731 8.7448 5.4497 1.5856 -57.2273 -0.0001 -14.9976 -0.0000 14.7010 7.4981 -0.5655 -0.0000 -0.0000 0.0000 -0.0000 -0.0000 0.0000 10.7869 0.4949 -4.9184 14.3846 -1.0264 66.2718 -0.0001 18.5929 0.0000 1.8444 29.5712 -14.5192 -0.0000 -0.0000 0.0000 -0.0000 -0.0000 0.0000
 -1.3015 38.7267 -0.1963 1.0519 -3.2291 1.7582 -4.4428 6.7100 2.2804 20.1027 -0.0000 0.0000 23.0807 -4.3395 -13.4277 -17.6993 0.0000 -0.0000 -1.2159 -5.8773 -0.2187 14.9945 -0.0000 0.0000 21.0271 7.8673 6.8528 -12.1515 0.0000 0.0000 -10.1472 0.8710 0.2709 11.5438 1.0639 -4.0729 24.3383 6.6484 7.4379 -27.4320 5.3295 -14.2213 7.8323 -0.7568 8.8639 6.3788 0.9693 -58.4534 -0.0001 -14.2819 -0.0000 14.7098 6.0737 -0.8346 -0.0000 -0.0000 0.0000 -0.0000 -0.0000 0.0000 11.5848 0.3899 -4.7503 15.0012 -3.4018 67.0868 -0.0001 18.3311 0.0000 2.6178 28.2285 -15.2944 -0.0000 0.0000 -0.0000 -0.0000 0.0000 -0.0000
 -1.4448 40.0222 -0.0457 0.3663 -3.0909 1.4684 -4.9683 4.2271 2.0419 23.5607 -0.0000 0.0000 24.3485 3.1877 -14.5365 -15.7075 0.0000 0.0000 -1.8407 -4.4954 -0.6591 17.8281 -0.0000 0.0000 27.7256 11.3870 1.1798 -12.1170 0.0000 -0.0000 -8.6865 0.6997 0.1305 9.5749 0.9706 -3.8691 28.7925 7.6371 8.2069 -32.7885 5.3220 -16.2476 7.4434 -1.0012 8.1212 6.2209 2.5861 -58.5854 -0.0001 -13.8875 -0.0000 12.3102 5.6318 1.1777 -0.0000 -0.0000 0.0000 -0.0000 -0.0000 0.0000 11.7602 1.2961 -3.2652 14.9645 -6.4894 65.8605 -0.0001 17.2274 0.0000 3.9491 27.5136 -18.7545 -0.0000 0.0000 -0.0000 -0.0000 0.0000 -0.0000
 -1.5844 40.8464 -0.0056 -1.0517 -3.6719 0.9237 -5.0510 2.5076 1.9327 28.0512 -0.0000 0.0000 21.9620 2.5375 -10.9186 -15.7837 0.0000 -0.0000 -3.3659 -1.9150 -0.5324 25.8866 -0.0000 0.0000 26.1336 11.9959 1.7864 -11.8616 0.0000 0.0000 -7.5760 0.6036 0.2618 10.1091 0.9246 -3.5727 30.9229 9.5932 7.4402 -37.1553 4.4757 -16.7669 7.5323 -2.0579 7.0823 5.9530 4.7593 -58.2338 -0.0001 -13.5627 -0.0000 9.2823 5.8417 4.0975 -0.0000 0.0000 -0.0000 -0.0000 0.0000 -0.0000 11.2636 3.1818 -2.1331 15.0075 -7.5821 64.7507 -0.0001 15.3234 0.0000 3.4547 27.4216 -22.8500 -0.0000 0.0000 -0.0000 -0.0000 0.0000 -0.0000
 -1.7144 41.1729 -0.0302 -2.2984 -4.4079 0.3322 -4.2050 0.8374 1.7624 28.8745 -0.0000 0.0000 18.9246 -1.4511 -10.8779 -16.1086 0.0000 -0.0000 -4.0278 -1.7848 -0.3948 30.2771 -0.0000 0.0000 22.7523 10.5021 0.0213 -12.9401 0.0000 -0.0000 -7.0842 0.6654 0.5497 11.9009 1.0100 -3.3712 28.5375 8.6061 6.7791 -34.4800 5.1434 -15.3465 6.7662 -2.2266 7.1784 5.8357 4.7425 -58.6512 -0.0000 -13.3304 -0.0000 8.2004 6.7403 5.3791 -0.0000 0.0000 -0.0000 -0.0000 0.0000 -0.0000 10.8389 3.5929 -2.6229 14.7972 -5.3246 65.0599 -0.0001 14.3908 0.0000 1.7078 27.6563 -23.8413 -0.0000 -0.0000 0.0000 -0.0000 -0.0000 0.0000
 -1.8929 41.0808 -0.0707 -2.2280 -4.7541 -0.4749 -4.0698 0.1467 1.9766 27.0966 -0.0000 0.0000 14.6010 -2.9162 -10.9801 -17.0356 0.0000 0.0000 -4.7642 -2.8429 0.2094 30.3108 -0.0000 0.0000 18.0298 7.3346 -2.7658 -13.7640 0.0000 -0.0000 -8.8689 0.6185 0.9966 15.2596 1.0582 -3.0344 23.9515 7.8886 6.0896 -28.9614 5.2582 -13.5919 5.9439 -1.4997 8.3002 4.9480 3.4042 -59.9083 -0.0001 -13.7330 -0.0000 8.0001 6.4704 4.8737 -0.0000 0.0000 -0.0000 -0.0000 0.0000 -0.0000 9.9075 2.8889 -4.1830 14.0339 -3.2115 66.6074 -0.0001 15.3279 0.0000 1.2555 27.9599 -22.2962 -0.0000 -0.0000 0.0000 -0.0000 -0.0000 0.0000
 -2.0733 40.6192 -0.0084 -1.0992 -4.7168 -1.1561 -4.6355 0.1583 2.1774 24.5010 -0.0000 0.0000 11.0284 -2.0917 -10.7365 -17.1277 0.0000 -0.0000 -5.6393 -3.9589 0.9025 27.8788 -0.0000 0.0000 13.8398 3.3894 -2.4514 -12.9128 0.0000 -0.0000 -11.3013 0.3734 1.2669 17.5219 0.9907 -2.6330 21.6633 7.7078 5.8076 -26.8017 5.5183 -12.5421 6.2058 -0.5447 8.8933 3.4860 2.7004 -60.7787 -0.0001 -14.7359 -0.0000 7.9168 5.3053 4.0534 -0.0000 0.0000 -0.0000 -0.0000 0.0000 -0.0000 9.1606 2.0221 -4.6771 12.9111 -3.1800 67.4316 -0.0001 16.8495 0.0000 1.9550 27.9010 -20.7329 -0.0000 -0.0000 0.0000 -0.0000 -0.0000 0.0000
 -2.2260 39.7649 0.1494 -0.2897 -4.8814 -1.4694 -4.9792 1.8364 2.1429 22.5588 -0.0000 0.0000 11.7592 -0.5434 -12.0458 -17.0263 0.0000 0.0000 -5.9336 -5.4954 1.0560 24.8828 -0.0000 0.0000 12.6790 1.6248 -3.4213 -13.1056 0.0000 0.0000 -13.4245 0.2669 1.3207 19.0862 0.9942 -2.5000 22.0346 7.7802 6.1750 -28.2261 6.0037 -12.6327 6.8827 -0.4829 8.6629 2.6734 2.6616 -60.9467 -0.0001 -15.2863 -0.0000 6.8628 4.2500 4.6526 -0.0000 0.0000 -0.0000 -0.0000 0.0000 -0.0000 9.3410 2.1020 -3.8048 11.8343 -3.2385 67.0647 -0.0001 17.0243 0.0000 1.6117 28.2497 -21.4181 -0.0000 0.0000 -0.0000 -0.0000 0.0000 -0.0000
 -2.3546 38.4719 0.2802 -0.2747 -5.1499 -1.6191 -5.2366 3.3086 1.8481 22.9333 -0.0000 0.0000 12.6992 0.5252 -13.2687 -17.2369 0.0000 -0.0000 -5.9269 -6.8586 0.6918 23.0887 -0.0000 0.0000 13.9697 2.6677 -2.3174 -13.3001 0.0000 -0.0000 -13.9202 0.2439 1.3143 19.3003 1.0048 -2.4616 22.8459 7.6470 6.6707 -29.5778 6.4890 -13.0422 6.9826 -0.9851 7.9629 2.6771 2.6571 -60.7112 -0.0001 -14.5652 -0.0000 6.4073 4.0797 5.0295 -0.0000 0.0000 -0.0000 -0.0000 0.0000 -0.0000 9.4645 2.6952 -2.8867 11.2530 -3.1002 66.6196 -0.0001 16.2644 0.0000 1.3456 28.1024 -22.7884 -0.0000 0.0000 -0.0000 -0.0000 0.0000 -0.0000
 -2.5039 36.7188 0.3805 -0.7916 -5.5542 -1.9524 -5.6109 4.1569 1.6947 27.0234 -0.0000 0.0000 5.0387 -0.0290 -7.8831 -28.0886 0.0000 -0.0000 -6.2580 -6.7185 0.4859 25.4734 -0.0000 0.0000 9.8351 4.8426 -4.2403 -23.4792 0.0000 -0.0000 -12.9297 0.3654 1.2592 18.0508 1.2321 -2.2183 23.5602 7.1527 7.3984 -30.4112 7.2256 -13.5388 6.2346 -1.7334 7.6721 3.7146 2.8466 -60.8622 -0.0001 -13.6598 -0.0000 6.8288 4.2388 4.7937 -0.0000 0.0000 -0.0000 -0.0000 0.0000 -0.0000 9.2944 3.1234 -2.3935 11.4705 -2.5220 66.3213 -0.0001 15.3558 0.0000 0.1439 28.4392 -21.6264 -0.0000 -0.0000 0.0000 -0.0000 -0.0000 0.0000
 -2.6742 34.6258 0.4175 -1.6623 -5.8455 -2.4883 -7.0626 4.2906 1.8495 35.8566 -0.0000 0.0000 -15.6039 2.5652 -1.2926 -17.6033 0.0000 -0.0000 -7.6117 -6.1555 1.2281 34.3606 -0.0000 0.0000 -9.4138 5.4441 -12.1903 -16.8779 0.0000 0.0000 -9.2136 0.6711 1.0827 13.7141 1.7725 -1.4893 23.8490 7.5608 7.2513 -31.1618 6.6222 -13.4986 6.3653 -1.7161 7.0984 4.5094 2.0545 -60.1867 -0.0001 -14.0053 -0.0000 7.9202 4.7224 3.0682 -0.0000 0.0000 -0.0000 -0.0000 0.0000 -0.0000 9.3375 2.4187 -1.8218 12.5338 -2.5271 65.3661 -0.0001 16.3622 0.0000 0.7131 28.5214 -19.5227 -0.0000 -0.0000 0.0000 -0.0000 -0.0000 0.0000
